<?xml version="1.0" encoding="UTF-8"?>
<svg xmlns="http://www.w3.org/2000/svg" width="1320" height="720" viewBox="0 0 1320 720">
<defs><marker id="arrow" markerWidth="10" markerHeight="10" refX="9" refY="3" orient="auto" markerUnits="strokeWidth"><path d="M0,0 L0,6 L9,3 z" fill="#111" /></marker></defs>
<style>
.frame,.object,.db{fill:#fff;stroke:#111;stroke-width:1.2}.line{stroke:#111;stroke-width:1.2;fill:none;marker-end:url(#arrow)}.reply{stroke:#111;stroke-width:1.2;fill:none;stroke-dasharray:6 5;marker-end:url(#arrow)}
text{font-family:Arial,Helvetica,sans-serif;font-size:14px;fill:#111}.title{font-size:18px;font-weight:700}.frame-title,.obj-title{font-size:14px;font-weight:700}.label{font-size:13px}
</style>
<text class="title" x="660" y="28" text-anchor="middle">
<tspan x="660" dy="0">5.3.5. S&#x1A1; &#x111;&#x1ED3; giao ti&#x1EBF;p - Admin manage Session</tspan>
</text>
<rect class="frame" x="25" y="55" width="1270" height="635"/>
<path class="frame" d="M25,55 H300 L284,82 H25 Z"/>
<text class="frame-title" x="35" y="74" text-anchor="start">
<tspan x="35" dy="0">Interaction Admin manage Session</tspan>
</text>
<g><circle class="object" cx="90" cy="315" r="11"/><line class="object" x1="90" y1="326" x2="90" y2="363"/><line class="object" x1="65" y1="340" x2="115" y2="340"/><line class="object" x1="90" y1="363" x2="68" y2="393"/><line class="object" x1="90" y1="363" x2="112" y2="393"/><text class="obj-title" x="90" y="419" text-anchor="middle">
<tspan x="90" dy="0">System Admin</tspan>
</text></g>
<rect class="object" x="235" y="295" width="150" height="60"/>
<text class="obj-title" x="310.0" y="330.0" text-anchor="middle">
<tspan x="310.0" dy="0">: Admin UI</tspan>
</text>
<rect class="object" x="500" y="115" width="165" height="65"/>
<text class="obj-title" x="582.5" y="152.5" text-anchor="middle">
<tspan x="582.5" dy="0">: AuthService</tspan>
</text>
<rect class="object" x="500" y="460" width="185" height="75"/>
<text class="obj-title" x="592.5" y="502.5" text-anchor="middle">
<tspan x="592.5" dy="0">: SessionService</tspan>
</text>
<rect class="object" x="835" y="460" width="195" height="70"/>
<text class="obj-title" x="932.5" y="500.0" text-anchor="middle">
<tspan x="932.5" dy="0">: AuditLogService</tspan>
</text>
<path class="db" d="M1080,288 C1080,264 1225,264 1225,288 L1225,347 C1225,371 1080,371 1080,347 Z"/>
<ellipse class="db" cx="1152.5" cy="288" rx="72.5" ry="18"/>
<text class="obj-title" x="1152.5" y="332.5" text-anchor="middle">
<tspan x="1152.5" dy="0">Database</tspan>
</text>
<line class="line" x1="120" y1="350" x2="235" y2="325"/>
<text class="label" x="178" y="305" text-anchor="middle">
<tspan x="178" dy="0">1. M&#x1EDF; qu&#x1EA3;n l&#xFD; phi&#xEA;n</tspan>
</text>
<line class="line" x1="385" y1="305" x2="500" y2="150"/>
<text class="label" x="444" y="220" text-anchor="middle">
<tspan x="444" dy="0">2. Ki&#x1EC3;m tra quy&#x1EC1;n admin</tspan>
</text>
<line class="line" x1="665" y1="150" x2="1120" y2="285"/>
<text class="label" x="880" y="185" text-anchor="middle">
<tspan x="880" dy="0">3. Load role/permission</tspan>
</text>
<line class="line" x1="385" y1="345" x2="500" y2="485"/>
<text class="label" x="440" y="430" text-anchor="middle">
<tspan x="440" dy="0">4. Truy v&#x1EA5;n phi&#xEA;n user</tspan>
</text>
<line class="line" x1="685" y1="485" x2="1085" y2="330"/>
<text class="label" x="880" y="440" text-anchor="middle">
<tspan x="880" dy="0">5. SELECT user_session</tspan>
</text>
<line class="reply" x1="1085" y1="350" x2="685" y2="520"/>
<text class="label" x="880" y="575" text-anchor="middle">
<tspan x="880" dy="0">6. Danh s&#xE1;ch phi&#xEA;n</tspan>
</text>
<line class="line" x1="120" y1="375" x2="235" y2="350"/>
<text class="label" x="178" y="395" text-anchor="middle">
<tspan x="178" dy="0">7. Ch&#x1ECD;n phi&#xEA;n c&#x1EA7;n thu h&#x1ED3;i</tspan>
</text>
<line class="line" x1="385" y1="365" x2="500" y2="515"/>
<text class="label" x="440" y="570" text-anchor="middle">
<tspan x="440" dy="0">8. revokeSession(sessionId)</tspan>
</text>
<line class="line" x1="685" y1="515" x2="1120" y2="350"/>
<text class="label" x="890" y="510" text-anchor="middle">
<tspan x="890" dy="0">9. C&#x1EAD;p nh&#x1EAD;t isActive=false</tspan>
</text>
<line class="line" x1="685" y1="490" x2="835" y2="490"/>
<text class="label" x="760" y="465" text-anchor="middle">
<tspan x="760" dy="0">10. Ghi log SESSION_REVOKED</tspan>
</text>
<line class="line" x1="1030" y1="490" x2="1120" y2="365"/>
<text class="label" x="1085" y="435" text-anchor="middle">
<tspan x="1085" dy="0">11. L&#x1B0;u audit log</tspan>
</text>
<line class="reply" x1="500" y1="535" x2="385" y2="375"/>
<text class="label" x="440" y="615" text-anchor="middle">
<tspan x="440" dy="0">12. Phi&#xEA;n &#x111;&#xE3; c&#x1EAD;p nh&#x1EAD;t</tspan>
</text>
</svg>