<?xml version="1.0" encoding="UTF-8"?>
<svg xmlns="http://www.w3.org/2000/svg" width="1320" height="760" viewBox="0 0 1320 760">
<defs><marker id="arrow" markerWidth="10" markerHeight="10" refX="9" refY="3" orient="auto" markerUnits="strokeWidth"><path d="M0,0 L0,6 L9,3 z" fill="#111" /></marker></defs>
<style>
.frame,.object,.db,.actor-line{fill:#fff;stroke:#111;stroke-width:1.35}.line{stroke:#111;stroke-width:1.35;fill:none;marker-end:url(#arrow)}.reply{stroke:#111;stroke-width:1.35;fill:none;stroke-dasharray:7 5;marker-end:url(#arrow)}
text{font-family:Arial,Helvetica,sans-serif;font-size:14px;fill:#111}.title{font-size:17px;font-weight:700;paint-order:stroke;stroke:#fff;stroke-width:4px;stroke-linejoin:round}.frame-title{font-size:14px}.keyword{font-weight:700}.obj-title{font-size:15px;font-weight:700}.label{font-size:13px;paint-order:stroke;stroke:#fff;stroke-width:5px;stroke-linejoin:round}
</style>
<text class="title" x="660.0" y="30" text-anchor="middle">
<tspan x="660.0" dy="0">5.3.1. S&#417; &#273;&#7891; giao ti&#7871;p - Login</tspan>
</text>
<rect class="frame" x="50" y="55" width="1220" height="655"/>
<path class="frame" d="M50,55 H320 L300,84 H50 Z"/>
<text class="frame-title" x="62" y="76"><tspan class="keyword">interaction</tspan> Login</text>
<circle class="actor-line" cx="125" cy="335" r="12"/>
<line class="actor-line" x1="125" y1="347" x2="125" y2="390"/>
<line class="actor-line" x1="97" y1="365" x2="153" y2="365"/>
<line class="actor-line" x1="125" y1="390" x2="101" y2="423"/>
<line class="actor-line" x1="125" y1="390" x2="149" y2="423"/>
<text class="obj-title" x="125" y="450" text-anchor="middle">
<tspan x="125" dy="0">: Ng&#432;&#7901;i d&#249;ng</tspan>
</text>
<rect class="object" x="250" y="320" width="170" height="70"/>
<text class="obj-title" x="335.0" y="360.0" text-anchor="middle">
<tspan x="335.0" dy="0">: Frontend</tspan>
</text>
<rect class="object" x="530" y="290" width="240" height="110"/>
<text class="obj-title" x="650.0" y="350.0" text-anchor="middle">
<tspan x="650.0" dy="0">: AuthService</tspan>
</text>
<path class="db" d="M1010,314 C1010,290 1180,290 1180,314 L1180,395 C1180,419 1010,419 1010,395 Z"/>
<ellipse class="db" cx="1095.0" cy="314" rx="85.0" ry="22"/>
<text class="obj-title" x="1095.0" y="368.5" text-anchor="middle">
<tspan x="1095.0" dy="0">Database</tspan>
</text>
<rect class="object" x="540" y="105" width="220" height="80"/>
<text class="obj-title" x="650.0" y="150.0" text-anchor="middle">
<tspan x="650.0" dy="0">: MFAService</tspan>
</text>
<rect class="object" x="540" y="570" width="220" height="80"/>
<text class="obj-title" x="650.0" y="615.0" text-anchor="middle">
<tspan x="650.0" dy="0">: SessionService</tspan>
</text>
<polyline class="line" points="153,345 250,345"/>
<text class="label" x="205" y="326" text-anchor="middle">
<tspan x="205" dy="0">1. Nh&#7853;p t&#224;i kho&#7843;n v&#224;</tspan>
<tspan x="205" dy="17">m&#7853;t kh&#7849;u</tspan>
</text>
<polyline class="line" points="420,340 530,340"/>
<text class="label" x="475" y="320" text-anchor="middle">
<tspan x="475" dy="0">2. login()</tspan>
</text>
<polyline class="line" points="770,318 1010,318"/>
<text class="label" x="890" y="300" text-anchor="middle">
<tspan x="890" dy="0">3. Load user</tspan>
</text>
<polyline class="reply" points="1010,355 770,355"/>
<text class="label" x="890" y="378" text-anchor="middle">
<tspan x="890" dy="0">4. Tr&#7843; th&#244;ng tin user</tspan>
</text>
<polyline class="line" points="610,290 610,185"/>
<text class="label" x="560" y="235" text-anchor="middle">
<tspan x="560" dy="0">5. Ki&#7875;m tra MFA</tspan>
</text>
<polyline class="reply" points="650,185 650,290"/>
<text class="label" x="705" y="235" text-anchor="middle">
<tspan x="705" dy="0">6. Verify OTP n&#7871;u c&#243;</tspan>
<tspan x="705" dy="17">MFA</tspan>
</text>
<polyline class="line" points="650,400 650,570"/>
<text class="label" x="715" y="490" text-anchor="middle">
<tspan x="715" dy="0">7. T&#7841;o session</tspan>
</text>
<polyline class="line" points="760,610 1060,610 1060,417"/>
<text class="label" x="915" y="592" text-anchor="middle">
<tspan x="915" dy="0">7.1. L&#432;u session</tspan>
</text>
<polyline class="line" points="770,385 1010,385"/>
<text class="label" x="890" y="410" text-anchor="middle">
<tspan x="890" dy="0">8. Ghi audit log</tspan>
</text>
<polyline class="reply" points="530,375 420,375"/>
<text class="label" x="475" y="405" text-anchor="middle">
<tspan x="475" dy="0">9. Nh&#7853;n token</tspan>
</text>
<polyline class="reply" points="250,375 153,375"/>
<text class="label" x="205" y="405" text-anchor="middle">
<tspan x="205" dy="0">10. V&#224;o Dashboard</tspan>
</text>
</svg>